<?xml version="1.0" encoding="us-ascii" standalone="no"?><svg xmlns="http://www.w3.org/2000/svg" xmlns:xlink="http://www.w3.org/1999/xlink" contentStyleType="text/css" height="690px" preserveAspectRatio="none" style="width:1058px;height:690px;background:#FFFFFF;" version="1.1" viewBox="0 0 1058 690" width="1058px" zoomAndPan="magnify"><defs/><g><text fill="#000000" font-family="sans-serif" font-size="14" font-weight="bold" lengthAdjust="spacing" textLength="293" x="381.75" y="29.5332">Sequence &#1076;&#1110;&#1072;&#1075;&#1088;&#1072;&#1084;&#1072; &#1082;&#1085;&#1080;&#1078;&#1082;&#1086;&#1074;&#1086;&#1075;&#1086; &#1084;&#1072;&#1075;&#1072;&#1079;&#1080;&#1085;&#1091;</text><line style="stroke:#181818;stroke-width:0.5;stroke-dasharray:5.0,5.0;" x1="34" x2="34" y1="121.2188" y2="608.4922"/><line style="stroke:#181818;stroke-width:0.5;stroke-dasharray:5.0,5.0;" x1="333" x2="333" y1="121.2188" y2="608.4922"/><line style="stroke:#181818;stroke-width:0.5;stroke-dasharray:5.0,5.0;" x1="616" x2="616" y1="121.2188" y2="608.4922"/><line style="stroke:#181818;stroke-width:0.5;stroke-dasharray:5.0,5.0;" x1="839.5" x2="839.5" y1="121.2188" y2="608.4922"/><line style="stroke:#181818;stroke-width:0.5;stroke-dasharray:5.0,5.0;" x1="1026.5" x2="1026.5" y1="121.2188" y2="608.4922"/><text fill="#000000" font-family="sans-serif" font-size="14" lengthAdjust="spacing" textLength="52" x="5" y="118.1426">&#1030;&#1074;&#1072;&#1085;&#1086;&#1074; &#1030;.</text><ellipse cx="34" cy="52.1094" fill="#E2E2F0" rx="8" ry="8" style="stroke:#181818;stroke-width:0.5;"/><path d="M34,60.1094 L34,87.1094 M21,68.1094 L47,68.1094 M34,87.1094 L21,102.1094 M34,87.1094 L47,102.1094 " fill="none" style="stroke:#181818;stroke-width:0.5;"/><text fill="#000000" font-family="sans-serif" font-size="14" lengthAdjust="spacing" textLength="52" x="5" y="622.0254">&#1030;&#1074;&#1072;&#1085;&#1086;&#1074; &#1030;.</text><ellipse cx="34" cy="633.6016" fill="#E2E2F0" rx="8" ry="8" style="stroke:#181818;stroke-width:0.5;"/><path d="M34,641.6016 L34,668.6016 M21,649.6016 L47,649.6016 M34,668.6016 L21,683.6016 M34,668.6016 L47,683.6016 " fill="none" style="stroke:#181818;stroke-width:0.5;"/><rect fill="#E2E2F0" height="31.6094" rx="2.5" ry="2.5" style="stroke:#181818;stroke-width:0.5;" width="112" x="277" y="88.6094"/><text fill="#000000" font-family="sans-serif" font-size="14" lengthAdjust="spacing" textLength="98" x="284" y="110.1426">&#1042;&#1077;&#1073;-&#1110;&#1085;&#1090;&#1077;&#1088;&#1092;&#1077;&#1081;&#1089;</text><rect fill="#E2E2F0" height="31.6094" rx="2.5" ry="2.5" style="stroke:#181818;stroke-width:0.5;" width="112" x="277" y="607.4922"/><text fill="#000000" font-family="sans-serif" font-size="14" lengthAdjust="spacing" textLength="98" x="284" y="629.0254">&#1042;&#1077;&#1073;-&#1110;&#1085;&#1090;&#1077;&#1088;&#1092;&#1077;&#1081;&#1089;</text><rect fill="#E2E2F0" height="31.6094" rx="2.5" ry="2.5" style="stroke:#181818;stroke-width:0.5;" width="154" x="539" y="88.6094"/><text fill="#000000" font-family="sans-serif" font-size="14" lengthAdjust="spacing" textLength="140" x="546" y="110.1426">&#1062;&#1077;&#1085;&#1090;&#1088;&#1072;&#1083;&#1100;&#1085;&#1072; &#1089;&#1080;&#1089;&#1090;&#1077;&#1084;&#1072;</text><rect fill="#E2E2F0" height="31.6094" rx="2.5" ry="2.5" style="stroke:#181818;stroke-width:0.5;" width="154" x="539" y="607.4922"/><text fill="#000000" font-family="sans-serif" font-size="14" lengthAdjust="spacing" textLength="140" x="546" y="629.0254">&#1062;&#1077;&#1085;&#1090;&#1088;&#1072;&#1083;&#1100;&#1085;&#1072; &#1089;&#1080;&#1089;&#1090;&#1077;&#1084;&#1072;</text><rect fill="#E2E2F0" height="31.6094" rx="2.5" ry="2.5" style="stroke:#181818;stroke-width:0.5;" width="147" x="766.5" y="88.6094"/><text fill="#000000" font-family="sans-serif" font-size="14" lengthAdjust="spacing" textLength="133" x="773.5" y="110.1426">&#1057;&#1080;&#1089;&#1090;&#1077;&#1084;&#1072; &#1079;&#1072;&#1084;&#1086;&#1074;&#1083;&#1077;&#1085;&#1100;</text><rect fill="#E2E2F0" height="31.6094" rx="2.5" ry="2.5" style="stroke:#181818;stroke-width:0.5;" width="147" x="766.5" y="607.4922"/><text fill="#000000" font-family="sans-serif" font-size="14" lengthAdjust="spacing" textLength="133" x="773.5" y="629.0254">&#1057;&#1080;&#1089;&#1090;&#1077;&#1084;&#1072; &#1079;&#1072;&#1084;&#1086;&#1074;&#1083;&#1077;&#1085;&#1100;</text><rect fill="#E2E2F0" height="31.6094" rx="2.5" ry="2.5" style="stroke:#181818;stroke-width:0.5;" width="51" x="1001.5" y="88.6094"/><text fill="#000000" font-family="sans-serif" font-size="14" lengthAdjust="spacing" textLength="37" x="1008.5" y="110.1426">&#1050;&#1085;&#1080;&#1075;&#1080;</text><rect fill="#E2E2F0" height="31.6094" rx="2.5" ry="2.5" style="stroke:#181818;stroke-width:0.5;" width="51" x="1001.5" y="607.4922"/><text fill="#000000" font-family="sans-serif" font-size="14" lengthAdjust="spacing" textLength="37" x="1008.5" y="629.0254">&#1050;&#1085;&#1080;&#1075;&#1080;</text><polygon fill="#181818" points="321,149.5703,331,153.5703,321,157.5703,325,153.5703" style="stroke:#181818;stroke-width:1.0;"/><line style="stroke:#181818;stroke-width:1.0;" x1="34" x2="327" y1="153.5703" y2="153.5703"/><text fill="#000000" font-family="sans-serif" font-size="13" lengthAdjust="spacing" textLength="148" x="41" y="148.7139">&#1040;&#1074;&#1090;&#1086;&#1088;&#1080;&#1079;&#1072;&#1094;&#1110;&#1103; &#1103;&#1082; &#1087;&#1086;&#1082;&#1091;&#1087;&#1077;&#1094;&#1100;</text><polygon fill="#181818" points="604,179.9219,614,183.9219,604,187.9219,608,183.9219" style="stroke:#181818;stroke-width:1.0;"/><line style="stroke:#181818;stroke-width:1.0;" x1="333" x2="610" y1="183.9219" y2="183.9219"/><text fill="#000000" font-family="sans-serif" font-size="13" lengthAdjust="spacing" textLength="129" x="340" y="179.0654">&#1047;&#1072;&#1087;&#1080;&#1090; &#1085;&#1072; &#1072;&#1074;&#1090;&#1086;&#1088;&#1080;&#1079;&#1072;&#1094;&#1110;&#1102;</text><line style="stroke:#181818;stroke-width:1.0;" x1="616" x2="658" y1="214.2734" y2="214.2734"/><line style="stroke:#181818;stroke-width:1.0;" x1="658" x2="658" y1="214.2734" y2="227.2734"/><line style="stroke:#181818;stroke-width:1.0;" x1="617" x2="658" y1="227.2734" y2="227.2734"/><polygon fill="#181818" points="627,223.2734,617,227.2734,627,231.2734,623,227.2734" style="stroke:#181818;stroke-width:1.0;"/><text fill="#000000" font-family="sans-serif" font-size="13" lengthAdjust="spacing" textLength="173" x="623" y="209.417">&#1055;&#1077;&#1088;&#1077;&#1074;&#1110;&#1088;&#1080;&#1090;&#1080; &#1076;&#1072;&#1085;&#1110; &#1082;&#1086;&#1088;&#1080;&#1089;&#1090;&#1091;&#1074;&#1072;&#1095;&#1072;</text><polygon fill="#181818" points="344,253.625,334,257.625,344,261.625,340,257.625" style="stroke:#181818;stroke-width:1.0;"/><line style="stroke:#181818;stroke-width:1.0;stroke-dasharray:2.0,2.0;" x1="338" x2="615" y1="257.625" y2="257.625"/><text fill="#000000" font-family="sans-serif" font-size="13" lengthAdjust="spacing" textLength="161" x="350" y="252.7686">&#1055;&#1110;&#1076;&#1090;&#1074;&#1077;&#1088;&#1076;&#1078;&#1077;&#1085;&#1085;&#1103; &#1072;&#1074;&#1090;&#1086;&#1088;&#1080;&#1079;&#1072;&#1094;&#1110;&#1111;</text><polygon fill="#181818" points="45,283.9766,35,287.9766,45,291.9766,41,287.9766" style="stroke:#181818;stroke-width:1.0;"/><line style="stroke:#181818;stroke-width:1.0;stroke-dasharray:2.0,2.0;" x1="39" x2="332" y1="287.9766" y2="287.9766"/><text fill="#000000" font-family="sans-serif" font-size="13" lengthAdjust="spacing" textLength="89" x="51" y="283.1201">&#1044;&#1086;&#1089;&#1090;&#1091;&#1087; &#1085;&#1072;&#1076;&#1072;&#1085;&#1086;</text><polygon fill="#181818" points="321,330.6797,331,334.6797,321,338.6797,325,334.6797" style="stroke:#181818;stroke-width:1.0;"/><line style="stroke:#181818;stroke-width:1.0;" x1="34" x2="327" y1="334.6797" y2="334.6797"/><text fill="#000000" font-family="sans-serif" font-size="13" lengthAdjust="spacing" textLength="129" x="41" y="313.4717">&#1057;&#1090;&#1074;&#1086;&#1088;&#1080;&#1090;&#1080; &#1079;&#1072;&#1084;&#1086;&#1074;&#1083;&#1077;&#1085;&#1085;&#1103;</text><text fill="#000000" font-family="sans-serif" font-size="13" lengthAdjust="spacing" textLength="168" x="41" y="329.8232">(&#1082;&#1085;&#1080;&#1075;&#1072; "&#1043;&#1072;&#1088;&#1088;&#1110; &#1055;&#1086;&#1090;&#1090;&#1077;&#1088;", 4 &#1096;&#1090;.)</text><polygon fill="#181818" points="604,361.0313,614,365.0313,604,369.0313,608,365.0313" style="stroke:#181818;stroke-width:1.0;"/><line style="stroke:#181818;stroke-width:1.0;" x1="333" x2="610" y1="365.0313" y2="365.0313"/><text fill="#000000" font-family="sans-serif" font-size="13" lengthAdjust="spacing" textLength="251" x="340" y="360.1748">&#1055;&#1077;&#1088;&#1077;&#1076;&#1072;&#1090;&#1080; &#1079;&#1072;&#1087;&#1080;&#1090; &#1085;&#1072; &#1089;&#1090;&#1074;&#1086;&#1088;&#1077;&#1085;&#1085;&#1103; &#1079;&#1072;&#1084;&#1086;&#1074;&#1083;&#1077;&#1085;&#1085;&#1103;</text><polygon fill="#181818" points="828,391.3828,838,395.3828,828,399.3828,832,395.3828" style="stroke:#181818;stroke-width:1.0;"/><line style="stroke:#181818;stroke-width:1.0;" x1="616" x2="834" y1="395.3828" y2="395.3828"/><text fill="#000000" font-family="sans-serif" font-size="13" lengthAdjust="spacing" textLength="161" x="623" y="390.5264">&#1055;&#1077;&#1088;&#1077;&#1076;&#1072;&#1090;&#1080; &#1076;&#1072;&#1085;&#1110; &#1079;&#1072;&#1084;&#1086;&#1074;&#1083;&#1077;&#1085;&#1085;&#1103;</text><polygon fill="#181818" points="1015,421.7344,1025,425.7344,1015,429.7344,1019,425.7344" style="stroke:#181818;stroke-width:1.0;"/><line style="stroke:#181818;stroke-width:1.0;" x1="840" x2="1021" y1="425.7344" y2="425.7344"/><text fill="#000000" font-family="sans-serif" font-size="13" lengthAdjust="spacing" textLength="163" x="847" y="420.8779">&#1055;&#1077;&#1088;&#1077;&#1074;&#1110;&#1088;&#1080;&#1090;&#1080; &#1085;&#1072;&#1103;&#1074;&#1085;&#1110;&#1089;&#1090;&#1100; &#1082;&#1085;&#1080;&#1075;&#1080;</text><polygon fill="#181818" points="851,452.0859,841,456.0859,851,460.0859,847,456.0859" style="stroke:#181818;stroke-width:1.0;"/><line style="stroke:#181818;stroke-width:1.0;stroke-dasharray:2.0,2.0;" x1="845" x2="1026" y1="456.0859" y2="456.0859"/><text fill="#000000" font-family="sans-serif" font-size="13" lengthAdjust="spacing" textLength="93" x="857" y="451.2295">&#1050;&#1085;&#1080;&#1075;&#1072; &#1076;&#1086;&#1089;&#1090;&#1091;&#1087;&#1085;&#1072;</text><line style="stroke:#181818;stroke-width:1.0;" x1="840" x2="882" y1="486.4375" y2="486.4375"/><line style="stroke:#181818;stroke-width:1.0;" x1="882" x2="882" y1="486.4375" y2="499.4375"/><line style="stroke:#181818;stroke-width:1.0;" x1="841" x2="882" y1="499.4375" y2="499.4375"/><polygon fill="#181818" points="851,495.4375,841,499.4375,851,503.4375,847,499.4375" style="stroke:#181818;stroke-width:1.0;"/><text fill="#000000" font-family="sans-serif" font-size="13" lengthAdjust="spacing" textLength="161" x="847" y="481.5811">&#1057;&#1090;&#1074;&#1086;&#1088;&#1080;&#1090;&#1080; &#1085;&#1086;&#1074;&#1077; &#1079;&#1072;&#1084;&#1086;&#1074;&#1083;&#1077;&#1085;&#1085;&#1103;</text><polygon fill="#181818" points="627,525.7891,617,529.7891,627,533.7891,623,529.7891" style="stroke:#181818;stroke-width:1.0;"/><line style="stroke:#181818;stroke-width:1.0;stroke-dasharray:2.0,2.0;" x1="621" x2="839" y1="529.7891" y2="529.7891"/><text fill="#000000" font-family="sans-serif" font-size="13" lengthAdjust="spacing" textLength="200" x="633" y="524.9326">&#1056;&#1077;&#1079;&#1091;&#1083;&#1100;&#1090;&#1072;&#1090; &#1089;&#1090;&#1074;&#1086;&#1088;&#1077;&#1085;&#1085;&#1103; &#1079;&#1072;&#1084;&#1086;&#1074;&#1083;&#1077;&#1085;&#1085;&#1103;</text><polygon fill="#181818" points="344,556.1406,334,560.1406,344,564.1406,340,560.1406" style="stroke:#181818;stroke-width:1.0;"/><line style="stroke:#181818;stroke-width:1.0;stroke-dasharray:2.0,2.0;" x1="338" x2="615" y1="560.1406" y2="560.1406"/><text fill="#000000" font-family="sans-serif" font-size="13" lengthAdjust="spacing" textLength="259" x="350" y="555.2842">&#1055;&#1077;&#1088;&#1077;&#1076;&#1072;&#1090;&#1080; &#1088;&#1077;&#1079;&#1091;&#1083;&#1100;&#1090;&#1072;&#1090; &#1089;&#1090;&#1074;&#1086;&#1088;&#1077;&#1085;&#1085;&#1103; &#1079;&#1072;&#1084;&#1086;&#1074;&#1083;&#1077;&#1085;&#1085;&#1103;</text><polygon fill="#181818" points="45,586.4922,35,590.4922,45,594.4922,41,590.4922" style="stroke:#181818;stroke-width:1.0;"/><line style="stroke:#181818;stroke-width:1.0;stroke-dasharray:2.0,2.0;" x1="39" x2="332" y1="590.4922" y2="590.4922"/><text fill="#000000" font-family="sans-serif" font-size="13" lengthAdjust="spacing" textLength="275" x="51" y="585.6357">&#1042;&#1110;&#1076;&#1086;&#1073;&#1088;&#1072;&#1079;&#1080;&#1090;&#1080; &#1088;&#1077;&#1079;&#1091;&#1083;&#1100;&#1090;&#1072;&#1090; &#1089;&#1090;&#1074;&#1086;&#1088;&#1077;&#1085;&#1085;&#1103; &#1079;&#1072;&#1084;&#1086;&#1074;&#1083;&#1077;&#1085;&#1085;&#1103;</text><!--SRC=[fLGzRzDW4DxzAqwPGAATc1WOs9WOEh1qCS5312GbCPMw9McLTeW8AYYLkfGkpAwJD2Obpb-u-qSyTs_xrjYkX41HuZZlFH_tt3bnAtuVqKxqyLFKRaR4SvbomZFfu_CN9yGhNdF6rxZcdE8zuvpq15yINk9eBOT143RZJfSQF49D0WHgYKVR3Gfxz78_R7VsWxsm6xUQhRsm7QFmb1TyjGMnjGnv8NqvmWy_PM28rz6RKlaFdABIRDt860e9oO0p6IXS_HXmvw0NHnzAsCjY6S6pTgRDt1Zfs92lkc-ZRg-4FBVUPvnPoOjEvrql25mxjFLSRJuZ_i8fo7DOovHRHZAL2Sc4LyGRwApa4DS5VXy7G2ZGsGJs35usi3SawmXtLQxFWIl_0tYXcS5-YeA-4d26sMdqCjMP6OLs3N5CH8uvyJJU-GNYdmEQ6jaSGqOUO9ZK6pbpzW5t4O3X6qgSoCOwS1OuhwPqQJhvlTdI65Hsj_teTjsmMuZ_AuJxU4srtnmojYcD9_IKv4I6suyhUTx50XltAeM0RG-S3TzgZP52uculwgXzsdK4WSCfWwtDGoE3AMnAgaGMv9Xy0bbWI0lSkpZtyK3VPwyq1KLVNGdT7anUr7k-8oW6-XsdIqZWcGC3El_h26lMhPIWtVmRUMKHJtMLKNHb_n3Bstx_G-4t]--></g></svg>