<?xml version="1.0" encoding="us-ascii" standalone="no"?><svg xmlns="http://www.w3.org/2000/svg" xmlns:xlink="http://www.w3.org/1999/xlink" contentStyleType="text/css" height="939px" preserveAspectRatio="none" style="width:419px;height:939px;background:#FFFFFF;" version="1.1" viewBox="0 0 419 939" width="419px" zoomAndPan="magnify"><defs/><g><text fill="#000000" font-family="sans-serif" font-size="14" font-weight="bold" lengthAdjust="spacing" textLength="268" x="68.75" y="24.5332">&#1044;&#1110;&#1072;&#1075;&#1088;&#1072;&#1084;&#1072; &#1082;&#1083;&#1072;&#1089;&#1110;&#1074; &#1082;&#1085;&#1080;&#1078;&#1082;&#1086;&#1074;&#1086;&#1075;&#1086; &#1084;&#1072;&#1075;&#1072;&#1079;&#1080;&#1085;&#1091;</text><!--class ????????--><g id="elem_&#1055;&#1086;&#1082;&#1091;&#1087;&#1077;&#1094;&#1100;"><rect codeLine="3" fill="#F1F1F1" height="136.0469" id="&#1055;&#1086;&#1082;&#1091;&#1087;&#1077;&#1094;&#1100;" rx="2.5" ry="2.5" style="stroke:#181818;stroke-width:0.5;" width="140" x="212" y="45.6094"/><ellipse cx="247.25" cy="61.6094" fill="#ADD1B2" rx="11" ry="11" style="stroke:#181818;stroke-width:1.0;"/><path d="M250.0156,57.4844 Q250.1719,57.2656 250.3594,57.1563 Q250.5469,57.0469 250.7656,57.0469 Q251.1406,57.0469 251.375,57.3125 Q251.6094,57.5625 251.6094,58.1719 L251.6094,59.625 Q251.6094,60.2344 251.375,60.5 Q251.1406,60.7656 250.7656,60.7656 Q250.4219,60.7656 250.2188,60.5625 Q250.0156,60.375 249.9063,59.8594 Q249.8594,59.5 249.6719,59.3125 Q249.3438,58.9375 248.7344,58.7188 Q248.125,58.5 247.5,58.5 Q246.7344,58.5 246.0938,58.8281 Q245.4688,59.1563 244.9688,59.9063 Q244.4844,60.6563 244.4844,61.6875 L244.4844,62.7813 Q244.4844,64.0156 245.375,64.8438 Q246.2656,65.6563 247.8594,65.6563 Q248.7969,65.6563 249.4531,65.4063 Q249.8438,65.25 250.2656,64.8125 Q250.5313,64.5469 250.6719,64.4688 Q250.8281,64.3906 251.0313,64.3906 Q251.3594,64.3906 251.6094,64.6563 Q251.875,64.9063 251.875,65.25 Q251.875,65.5938 251.5313,66 Q251.0313,66.5781 250.2344,66.9063 Q249.1563,67.3594 247.8594,67.3594 Q246.3438,67.3594 245.1406,66.7344 Q244.1563,66.2344 243.4688,65.1719 Q242.7813,64.0938 242.7813,62.8125 L242.7813,61.6563 Q242.7813,60.3281 243.3906,59.1875 Q244.0156,58.0313 245.1094,57.4219 Q246.2031,56.7969 247.4375,56.7969 Q248.1719,56.7969 248.8125,56.9688 Q249.4688,57.125 250.0156,57.4844 Z " fill="#000000"/><text fill="#000000" font-family="sans-serif" font-size="14" lengthAdjust="spacing" textLength="63" x="265.75" y="67.3379">&#1055;&#1086;&#1082;&#1091;&#1087;&#1077;&#1094;&#1100;</text><line style="stroke:#181818;stroke-width:0.5;" x1="213" x2="351" y1="77.6094" y2="77.6094"/><rect fill="none" height="6" style="stroke:#C82930;stroke-width:1.0;" width="6" x="220" y="88.9141"/><text fill="#000000" font-family="sans-serif" font-size="14" lengthAdjust="spacing" textLength="34" x="232" y="96.1426">id: int</text><rect fill="none" height="6" style="stroke:#C82930;stroke-width:1.0;" width="6" x="220" y="106.5234"/><text fill="#000000" font-family="sans-serif" font-size="14" lengthAdjust="spacing" textLength="69" x="232" y="113.752">&#1110;&#1084;'&#1103;: String</text><rect fill="none" height="6" style="stroke:#C82930;stroke-width:1.0;" width="6" x="220" y="124.1328"/><text fill="#000000" font-family="sans-serif" font-size="14" lengthAdjust="spacing" textLength="77" x="232" y="131.3613">&#1083;&#1086;&#1075;&#1110;&#1085;: String</text><rect fill="none" height="6" style="stroke:#C82930;stroke-width:1.0;" width="6" x="220" y="141.7422"/><text fill="#000000" font-family="sans-serif" font-size="14" lengthAdjust="spacing" textLength="93" x="232" y="148.9707">&#1087;&#1072;&#1088;&#1086;&#1083;&#1100;: String</text><line style="stroke:#181818;stroke-width:0.5;" x1="213" x2="351" y1="156.0469" y2="156.0469"/><ellipse cx="223" cy="170.3516" fill="#84BE84" rx="3" ry="3" style="stroke:#038048;stroke-width:1.0;"/><text fill="#000000" font-family="sans-serif" font-size="14" lengthAdjust="spacing" textLength="114" x="232" y="174.5801">&#1072;&#1074;&#1090;&#1086;&#1088;&#1080;&#1079;&#1091;&#1074;&#1072;&#1090;&#1080;&#1089;&#1103;()</text></g><!--class ????????????--><g id="elem_&#1042;&#1077;&#1073;&#1030;&#1085;&#1090;&#1077;&#1088;&#1092;&#1077;&#1081;&#1089;"><rect codeLine="11" fill="#F1F1F1" height="100.8281" id="&#1042;&#1077;&#1073;&#1030;&#1085;&#1090;&#1077;&#1088;&#1092;&#1077;&#1081;&#1089;" rx="2.5" ry="2.5" style="stroke:#181818;stroke-width:0.5;" width="308" x="20" y="259.6094"/><ellipse cx="123.25" cy="275.6094" fill="#ADD1B2" rx="11" ry="11" style="stroke:#181818;stroke-width:1.0;"/><path d="M126.0156,271.4844 Q126.1719,271.2656 126.3594,271.1563 Q126.5469,271.0469 126.7656,271.0469 Q127.1406,271.0469 127.375,271.3125 Q127.6094,271.5625 127.6094,272.1719 L127.6094,273.625 Q127.6094,274.2344 127.375,274.5 Q127.1406,274.7656 126.7656,274.7656 Q126.4219,274.7656 126.2188,274.5625 Q126.0156,274.375 125.9063,273.8594 Q125.8594,273.5 125.6719,273.3125 Q125.3438,272.9375 124.7344,272.7188 Q124.125,272.5 123.5,272.5 Q122.7344,272.5 122.0938,272.8281 Q121.4688,273.1563 120.9688,273.9063 Q120.4844,274.6563 120.4844,275.6875 L120.4844,276.7813 Q120.4844,278.0156 121.375,278.8438 Q122.2656,279.6563 123.8594,279.6563 Q124.7969,279.6563 125.4531,279.4063 Q125.8438,279.25 126.2656,278.8125 Q126.5313,278.5469 126.6719,278.4688 Q126.8281,278.3906 127.0313,278.3906 Q127.3594,278.3906 127.6094,278.6563 Q127.875,278.9063 127.875,279.25 Q127.875,279.5938 127.5313,280 Q127.0313,280.5781 126.2344,280.9063 Q125.1563,281.3594 123.8594,281.3594 Q122.3438,281.3594 121.1406,280.7344 Q120.1563,280.2344 119.4688,279.1719 Q118.7813,278.0938 118.7813,276.8125 L118.7813,275.6563 Q118.7813,274.3281 119.3906,273.1875 Q120.0156,272.0313 121.1094,271.4219 Q122.2031,270.7969 123.4375,270.7969 Q124.1719,270.7969 124.8125,270.9688 Q125.4688,271.125 126.0156,271.4844 Z " fill="#000000"/><text fill="#000000" font-family="sans-serif" font-size="14" lengthAdjust="spacing" textLength="93" x="143.75" y="281.3379">&#1042;&#1077;&#1073;&#1030;&#1085;&#1090;&#1077;&#1088;&#1092;&#1077;&#1081;&#1089;</text><line style="stroke:#181818;stroke-width:0.5;" x1="21" x2="327" y1="291.6094" y2="291.6094"/><line style="stroke:#181818;stroke-width:0.5;" x1="21" x2="327" y1="299.6094" y2="299.6094"/><ellipse cx="31" cy="313.9141" fill="#84BE84" rx="3" ry="3" style="stroke:#038048;stroke-width:1.0;"/><text fill="#000000" font-family="sans-serif" font-size="14" lengthAdjust="spacing" textLength="188" x="40" y="318.1426">&#1087;&#1088;&#1080;&#1081;&#1085;&#1103;&#1090;&#1080;&#1047;&#1072;&#1087;&#1080;&#1090;&#1040;&#1074;&#1090;&#1086;&#1088;&#1080;&#1079;&#1072;&#1094;&#1110;&#1111;()</text><ellipse cx="31" cy="331.5234" fill="#84BE84" rx="3" ry="3" style="stroke:#038048;stroke-width:1.0;"/><text fill="#000000" font-family="sans-serif" font-size="14" lengthAdjust="spacing" textLength="282" x="40" y="335.752">&#1087;&#1077;&#1088;&#1077;&#1076;&#1072;&#1090;&#1080;&#1047;&#1072;&#1087;&#1080;&#1090;&#1053;&#1072;&#1057;&#1090;&#1074;&#1086;&#1088;&#1077;&#1085;&#1085;&#1103;&#1047;&#1072;&#1084;&#1086;&#1074;&#1083;&#1077;&#1085;&#1085;&#1103;()</text><ellipse cx="31" cy="349.1328" fill="#84BE84" rx="3" ry="3" style="stroke:#038048;stroke-width:1.0;"/><text fill="#000000" font-family="sans-serif" font-size="14" lengthAdjust="spacing" textLength="157" x="40" y="353.3613">&#1074;&#1110;&#1076;&#1086;&#1073;&#1088;&#1072;&#1079;&#1080;&#1090;&#1080;&#1056;&#1077;&#1079;&#1091;&#1083;&#1100;&#1090;&#1072;&#1090;()</text></g><!--class ?????????????????--><g id="elem_&#1062;&#1077;&#1085;&#1090;&#1088;&#1072;&#1083;&#1100;&#1085;&#1072;&#1057;&#1080;&#1089;&#1090;&#1077;&#1084;&#1072;"><rect codeLine="17" fill="#F1F1F1" height="118.4375" id="&#1062;&#1077;&#1085;&#1090;&#1088;&#1072;&#1083;&#1100;&#1085;&#1072;&#1057;&#1080;&#1089;&#1090;&#1077;&#1084;&#1072;" rx="2.5" ry="2.5" style="stroke:#181818;stroke-width:0.5;" width="308" x="7" y="438.6094"/><ellipse cx="87.25" cy="454.6094" fill="#ADD1B2" rx="11" ry="11" style="stroke:#181818;stroke-width:1.0;"/><path d="M90.0156,450.4844 Q90.1719,450.2656 90.3594,450.1563 Q90.5469,450.0469 90.7656,450.0469 Q91.1406,450.0469 91.375,450.3125 Q91.6094,450.5625 91.6094,451.1719 L91.6094,452.625 Q91.6094,453.2344 91.375,453.5 Q91.1406,453.7656 90.7656,453.7656 Q90.4219,453.7656 90.2188,453.5625 Q90.0156,453.375 89.9063,452.8594 Q89.8594,452.5 89.6719,452.3125 Q89.3438,451.9375 88.7344,451.7188 Q88.125,451.5 87.5,451.5 Q86.7344,451.5 86.0938,451.8281 Q85.4688,452.1563 84.9688,452.9063 Q84.4844,453.6563 84.4844,454.6875 L84.4844,455.7813 Q84.4844,457.0156 85.375,457.8438 Q86.2656,458.6563 87.8594,458.6563 Q88.7969,458.6563 89.4531,458.4063 Q89.8438,458.25 90.2656,457.8125 Q90.5313,457.5469 90.6719,457.4688 Q90.8281,457.3906 91.0313,457.3906 Q91.3594,457.3906 91.6094,457.6563 Q91.875,457.9063 91.875,458.25 Q91.875,458.5938 91.5313,459 Q91.0313,459.5781 90.2344,459.9063 Q89.1563,460.3594 87.8594,460.3594 Q86.3438,460.3594 85.1406,459.7344 Q84.1563,459.2344 83.4688,458.1719 Q82.7813,457.0938 82.7813,455.8125 L82.7813,454.6563 Q82.7813,453.3281 83.3906,452.1875 Q84.0156,451.0313 85.1094,450.4219 Q86.2031,449.7969 87.4375,449.7969 Q88.1719,449.7969 88.8125,449.9688 Q89.4688,450.125 90.0156,450.4844 Z " fill="#000000"/><text fill="#000000" font-family="sans-serif" font-size="14" lengthAdjust="spacing" textLength="139" x="107.75" y="460.3379">&#1062;&#1077;&#1085;&#1090;&#1088;&#1072;&#1083;&#1100;&#1085;&#1072;&#1057;&#1080;&#1089;&#1090;&#1077;&#1084;&#1072;</text><line style="stroke:#181818;stroke-width:0.5;" x1="8" x2="314" y1="470.6094" y2="470.6094"/><line style="stroke:#181818;stroke-width:0.5;" x1="8" x2="314" y1="478.6094" y2="478.6094"/><ellipse cx="18" cy="492.9141" fill="#84BE84" rx="3" ry="3" style="stroke:#038048;stroke-width:1.0;"/><text fill="#000000" font-family="sans-serif" font-size="14" lengthAdjust="spacing" textLength="194" x="27" y="497.1426">&#1087;&#1077;&#1088;&#1077;&#1074;&#1110;&#1088;&#1080;&#1090;&#1080;&#1044;&#1072;&#1085;&#1110;&#1050;&#1086;&#1088;&#1080;&#1089;&#1090;&#1091;&#1074;&#1072;&#1095;&#1072;()</text><ellipse cx="18" cy="510.5234" fill="#84BE84" rx="3" ry="3" style="stroke:#038048;stroke-width:1.0;"/><text fill="#000000" font-family="sans-serif" font-size="14" lengthAdjust="spacing" textLength="174" x="27" y="514.752">&#1087;&#1110;&#1076;&#1090;&#1074;&#1077;&#1088;&#1076;&#1080;&#1090;&#1080;&#1040;&#1074;&#1090;&#1086;&#1088;&#1080;&#1079;&#1072;&#1094;&#1110;&#1102;()</text><ellipse cx="18" cy="528.1328" fill="#84BE84" rx="3" ry="3" style="stroke:#038048;stroke-width:1.0;"/><text fill="#000000" font-family="sans-serif" font-size="14" lengthAdjust="spacing" textLength="282" x="27" y="532.3613">&#1087;&#1077;&#1088;&#1077;&#1076;&#1072;&#1090;&#1080;&#1047;&#1072;&#1087;&#1080;&#1090;&#1053;&#1072;&#1057;&#1090;&#1074;&#1086;&#1088;&#1077;&#1085;&#1085;&#1103;&#1047;&#1072;&#1084;&#1086;&#1074;&#1083;&#1077;&#1085;&#1085;&#1103;()</text><ellipse cx="18" cy="545.7422" fill="#84BE84" rx="3" ry="3" style="stroke:#038048;stroke-width:1.0;"/><text fill="#000000" font-family="sans-serif" font-size="14" lengthAdjust="spacing" textLength="141" x="27" y="549.9707">&#1087;&#1077;&#1088;&#1077;&#1076;&#1072;&#1090;&#1080;&#1056;&#1077;&#1079;&#1091;&#1083;&#1100;&#1090;&#1072;&#1090;()</text></g><!--class ????????????????--><g id="elem_&#1057;&#1080;&#1089;&#1090;&#1077;&#1084;&#1072;&#1047;&#1072;&#1084;&#1086;&#1074;&#1083;&#1077;&#1085;&#1100;"><rect codeLine="24" fill="#F1F1F1" height="100.8281" id="&#1057;&#1080;&#1089;&#1090;&#1077;&#1084;&#1072;&#1047;&#1072;&#1084;&#1086;&#1074;&#1083;&#1077;&#1085;&#1100;" rx="2.5" ry="2.5" style="stroke:#181818;stroke-width:0.5;" width="209" x="56.5" y="634.6094"/><ellipse cx="92.2" cy="650.6094" fill="#ADD1B2" rx="11" ry="11" style="stroke:#181818;stroke-width:1.0;"/><path d="M94.9656,646.4844 Q95.1219,646.2656 95.3094,646.1563 Q95.4969,646.0469 95.7156,646.0469 Q96.0906,646.0469 96.325,646.3125 Q96.5594,646.5625 96.5594,647.1719 L96.5594,648.625 Q96.5594,649.2344 96.325,649.5 Q96.0906,649.7656 95.7156,649.7656 Q95.3719,649.7656 95.1688,649.5625 Q94.9656,649.375 94.8563,648.8594 Q94.8094,648.5 94.6219,648.3125 Q94.2938,647.9375 93.6844,647.7188 Q93.075,647.5 92.45,647.5 Q91.6844,647.5 91.0438,647.8281 Q90.4188,648.1563 89.9188,648.9063 Q89.4344,649.6563 89.4344,650.6875 L89.4344,651.7813 Q89.4344,653.0156 90.325,653.8438 Q91.2156,654.6563 92.8094,654.6563 Q93.7469,654.6563 94.4031,654.4063 Q94.7938,654.25 95.2156,653.8125 Q95.4813,653.5469 95.6219,653.4688 Q95.7781,653.3906 95.9813,653.3906 Q96.3094,653.3906 96.5594,653.6563 Q96.825,653.9063 96.825,654.25 Q96.825,654.5938 96.4813,655 Q95.9813,655.5781 95.1844,655.9063 Q94.1063,656.3594 92.8094,656.3594 Q91.2938,656.3594 90.0906,655.7344 Q89.1063,655.2344 88.4188,654.1719 Q87.7313,653.0938 87.7313,651.8125 L87.7313,650.6563 Q87.7313,649.3281 88.3406,648.1875 Q88.9656,647.0313 90.0594,646.4219 Q91.1531,645.7969 92.3875,645.7969 Q93.1219,645.7969 93.7625,645.9688 Q94.4188,646.125 94.9656,646.4844 Z " fill="#000000"/><text fill="#000000" font-family="sans-serif" font-size="14" lengthAdjust="spacing" textLength="131" x="110.8" y="656.3379">&#1057;&#1080;&#1089;&#1090;&#1077;&#1084;&#1072;&#1047;&#1072;&#1084;&#1086;&#1074;&#1083;&#1077;&#1085;&#1100;</text><line style="stroke:#181818;stroke-width:0.5;" x1="57.5" x2="264.5" y1="666.6094" y2="666.6094"/><line style="stroke:#181818;stroke-width:0.5;" x1="57.5" x2="264.5" y1="674.6094" y2="674.6094"/><ellipse cx="67.5" cy="688.9141" fill="#84BE84" rx="3" ry="3" style="stroke:#038048;stroke-width:1.0;"/><text fill="#000000" font-family="sans-serif" font-size="14" lengthAdjust="spacing" textLength="182" x="76.5" y="693.1426">&#1087;&#1077;&#1088;&#1077;&#1076;&#1072;&#1090;&#1080;&#1044;&#1072;&#1085;&#1110;&#1047;&#1072;&#1084;&#1086;&#1074;&#1083;&#1077;&#1085;&#1085;&#1103;()</text><ellipse cx="67.5" cy="706.5234" fill="#84BE84" rx="3" ry="3" style="stroke:#038048;stroke-width:1.0;"/><text fill="#000000" font-family="sans-serif" font-size="14" lengthAdjust="spacing" textLength="183" x="76.5" y="710.752">&#1089;&#1090;&#1074;&#1086;&#1088;&#1080;&#1090;&#1080;&#1053;&#1086;&#1074;&#1077;&#1047;&#1072;&#1084;&#1086;&#1074;&#1083;&#1077;&#1085;&#1085;&#1103;()</text><ellipse cx="67.5" cy="724.1328" fill="#84BE84" rx="3" ry="3" style="stroke:#038048;stroke-width:1.0;"/><text fill="#000000" font-family="sans-serif" font-size="14" lengthAdjust="spacing" textLength="147" x="76.5" y="728.3613">&#1087;&#1086;&#1074;&#1077;&#1088;&#1085;&#1091;&#1090;&#1080;&#1056;&#1077;&#1079;&#1091;&#1083;&#1100;&#1090;&#1072;&#1090;()</text></g><!--class ?????--><g id="elem_&#1050;&#1085;&#1080;&#1075;&#1080;"><rect codeLine="30" fill="#F1F1F1" height="100.8281" id="&#1050;&#1085;&#1080;&#1075;&#1080;" rx="2.5" ry="2.5" style="stroke:#181818;stroke-width:0.5;" width="174" x="61" y="822.1094"/><ellipse cx="125.25" cy="838.1094" fill="#ADD1B2" rx="11" ry="11" style="stroke:#181818;stroke-width:1.0;"/><path d="M128.0156,833.9844 Q128.1719,833.7656 128.3594,833.6563 Q128.5469,833.5469 128.7656,833.5469 Q129.1406,833.5469 129.375,833.8125 Q129.6094,834.0625 129.6094,834.6719 L129.6094,836.125 Q129.6094,836.7344 129.375,837 Q129.1406,837.2656 128.7656,837.2656 Q128.4219,837.2656 128.2188,837.0625 Q128.0156,836.875 127.9063,836.3594 Q127.8594,836 127.6719,835.8125 Q127.3438,835.4375 126.7344,835.2188 Q126.125,835 125.5,835 Q124.7344,835 124.0938,835.3281 Q123.4688,835.6563 122.9688,836.4063 Q122.4844,837.1563 122.4844,838.1875 L122.4844,839.2813 Q122.4844,840.5156 123.375,841.3438 Q124.2656,842.1563 125.8594,842.1563 Q126.7969,842.1563 127.4531,841.9063 Q127.8438,841.75 128.2656,841.3125 Q128.5313,841.0469 128.6719,840.9688 Q128.8281,840.8906 129.0313,840.8906 Q129.3594,840.8906 129.6094,841.1563 Q129.875,841.4063 129.875,841.75 Q129.875,842.0938 129.5313,842.5 Q129.0313,843.0781 128.2344,843.4063 Q127.1563,843.8594 125.8594,843.8594 Q124.3438,843.8594 123.1406,843.2344 Q122.1563,842.7344 121.4688,841.6719 Q120.7813,840.5938 120.7813,839.3125 L120.7813,838.1563 Q120.7813,836.8281 121.3906,835.6875 Q122.0156,834.5313 123.1094,833.9219 Q124.2031,833.2969 125.4375,833.2969 Q126.1719,833.2969 126.8125,833.4688 Q127.4688,833.625 128.0156,833.9844 Z " fill="#000000"/><text fill="#000000" font-family="sans-serif" font-size="14" lengthAdjust="spacing" textLength="37" x="145.75" y="843.8379">&#1050;&#1085;&#1080;&#1075;&#1080;</text><line style="stroke:#181818;stroke-width:0.5;" x1="62" x2="234" y1="854.1094" y2="854.1094"/><rect fill="none" height="6" style="stroke:#C82930;stroke-width:1.0;" width="6" x="69" y="865.4141"/><text fill="#000000" font-family="sans-serif" font-size="14" lengthAdjust="spacing" textLength="82" x="81" y="872.6426">&#1085;&#1072;&#1079;&#1074;&#1072;: String</text><rect fill="none" height="6" style="stroke:#C82930;stroke-width:1.0;" width="6" x="69" y="883.0234"/><text fill="#000000" font-family="sans-serif" font-size="14" lengthAdjust="spacing" textLength="79" x="81" y="890.252">&#1082;&#1110;&#1083;&#1100;&#1082;&#1110;&#1089;&#1090;&#1100;: int</text><line style="stroke:#181818;stroke-width:0.5;" x1="62" x2="234" y1="897.3281" y2="897.3281"/><ellipse cx="72" cy="911.6328" fill="#84BE84" rx="3" ry="3" style="stroke:#038048;stroke-width:1.0;"/><text fill="#000000" font-family="sans-serif" font-size="14" lengthAdjust="spacing" textLength="148" x="81" y="915.8613">&#1087;&#1077;&#1088;&#1077;&#1074;&#1110;&#1088;&#1080;&#1090;&#1080;&#1053;&#1072;&#1103;&#1074;&#1085;&#1110;&#1089;&#1090;&#1100;()</text></g><!--class ??????????--><g id="elem_&#1047;&#1072;&#1084;&#1086;&#1074;&#1083;&#1077;&#1085;&#1085;&#1103;"><rect codeLine="36" fill="#F1F1F1" height="118.4375" id="&#1047;&#1072;&#1084;&#1086;&#1074;&#1083;&#1077;&#1085;&#1085;&#1103;" rx="2.5" ry="2.5" style="stroke:#181818;stroke-width:0.5;" width="113" x="299.5" y="813.6094"/><ellipse cx="314.5" cy="829.6094" fill="#ADD1B2" rx="11" ry="11" style="stroke:#181818;stroke-width:1.0;"/><path d="M317.2656,825.4844 Q317.4219,825.2656 317.6094,825.1563 Q317.7969,825.0469 318.0156,825.0469 Q318.3906,825.0469 318.625,825.3125 Q318.8594,825.5625 318.8594,826.1719 L318.8594,827.625 Q318.8594,828.2344 318.625,828.5 Q318.3906,828.7656 318.0156,828.7656 Q317.6719,828.7656 317.4688,828.5625 Q317.2656,828.375 317.1563,827.8594 Q317.1094,827.5 316.9219,827.3125 Q316.5938,826.9375 315.9844,826.7188 Q315.375,826.5 314.75,826.5 Q313.9844,826.5 313.3438,826.8281 Q312.7188,827.1563 312.2188,827.9063 Q311.7344,828.6563 311.7344,829.6875 L311.7344,830.7813 Q311.7344,832.0156 312.625,832.8438 Q313.5156,833.6563 315.1094,833.6563 Q316.0469,833.6563 316.7031,833.4063 Q317.0938,833.25 317.5156,832.8125 Q317.7813,832.5469 317.9219,832.4688 Q318.0781,832.3906 318.2813,832.3906 Q318.6094,832.3906 318.8594,832.6563 Q319.125,832.9063 319.125,833.25 Q319.125,833.5938 318.7813,834 Q318.2813,834.5781 317.4844,834.9063 Q316.4063,835.3594 315.1094,835.3594 Q313.5938,835.3594 312.3906,834.7344 Q311.4063,834.2344 310.7188,833.1719 Q310.0313,832.0938 310.0313,830.8125 L310.0313,829.6563 Q310.0313,828.3281 310.6406,827.1875 Q311.2656,826.0313 312.3594,825.4219 Q313.4531,824.7969 314.6875,824.7969 Q315.4219,824.7969 316.0625,824.9688 Q316.7188,825.125 317.2656,825.4844 Z " fill="#000000"/><text fill="#000000" font-family="sans-serif" font-size="14" lengthAdjust="spacing" textLength="81" x="328.5" y="835.3379">&#1047;&#1072;&#1084;&#1086;&#1074;&#1083;&#1077;&#1085;&#1085;&#1103;</text><line style="stroke:#181818;stroke-width:0.5;" x1="300.5" x2="411.5" y1="845.6094" y2="845.6094"/><rect fill="none" height="6" style="stroke:#C82930;stroke-width:1.0;" width="6" x="307.5" y="856.9141"/><text fill="#000000" font-family="sans-serif" font-size="14" lengthAdjust="spacing" textLength="34" x="319.5" y="864.1426">id: int</text><rect fill="none" height="6" style="stroke:#C82930;stroke-width:1.0;" width="6" x="307.5" y="874.5234"/><text fill="#000000" font-family="sans-serif" font-size="14" lengthAdjust="spacing" textLength="80" x="319.5" y="881.752">&#1082;&#1085;&#1080;&#1075;&#1072;: String</text><rect fill="none" height="6" style="stroke:#C82930;stroke-width:1.0;" width="6" x="307.5" y="892.1328"/><text fill="#000000" font-family="sans-serif" font-size="14" lengthAdjust="spacing" textLength="79" x="319.5" y="899.3613">&#1082;&#1110;&#1083;&#1100;&#1082;&#1110;&#1089;&#1090;&#1100;: int</text><rect fill="none" height="6" style="stroke:#C82930;stroke-width:1.0;" width="6" x="307.5" y="909.7422"/><text fill="#000000" font-family="sans-serif" font-size="14" lengthAdjust="spacing" textLength="69" x="319.5" y="916.9707">&#1076;&#1072;&#1090;&#1072;: Date</text><line style="stroke:#181818;stroke-width:0.5;" x1="300.5" x2="411.5" y1="924.0469" y2="924.0469"/></g><!--link ???????? to ????????????--><g id="link_&#1055;&#1086;&#1082;&#1091;&#1087;&#1077;&#1094;&#1100;_&#1042;&#1077;&#1073;&#1030;&#1085;&#1090;&#1077;&#1088;&#1092;&#1077;&#1081;&#1089;"><path codeLine="43" d="M244.68,181.8194 C230.54,207.2894 214.7,235.8194 201.6,259.3994 " fill="none" id="&#1055;&#1086;&#1082;&#1091;&#1087;&#1077;&#1094;&#1100;-&#1042;&#1077;&#1073;&#1030;&#1085;&#1090;&#1077;&#1088;&#1092;&#1077;&#1081;&#1089;" style="stroke:#181818;stroke-width:1.0;"/><text fill="#000000" font-family="sans-serif" font-size="13" lengthAdjust="spacing" textLength="81" x="229" y="226.1045">&#1074;&#1080;&#1082;&#1086;&#1088;&#1080;&#1089;&#1090;&#1086;&#1074;&#1091;&#1108;</text></g><!--link ???????????? to ?????????????????--><g id="link_&#1042;&#1077;&#1073;&#1030;&#1085;&#1090;&#1077;&#1088;&#1092;&#1077;&#1081;&#1089;_&#1062;&#1077;&#1085;&#1090;&#1088;&#1072;&#1083;&#1100;&#1085;&#1072;&#1057;&#1080;&#1089;&#1090;&#1077;&#1084;&#1072;"><path codeLine="45" d="M170.52,360.8194 C168.84,384.7494 166.82,413.5994 165.07,438.5294 " fill="none" id="&#1042;&#1077;&#1073;&#1030;&#1085;&#1090;&#1077;&#1088;&#1092;&#1077;&#1081;&#1089;-&#1062;&#1077;&#1085;&#1090;&#1088;&#1072;&#1083;&#1100;&#1085;&#1072;&#1057;&#1080;&#1089;&#1090;&#1077;&#1084;&#1072;" style="stroke:#181818;stroke-width:1.0;"/><text fill="#000000" font-family="sans-serif" font-size="13" lengthAdjust="spacing" textLength="93" x="170" y="405.1045">&#1087;&#1077;&#1088;&#1077;&#1076;&#1072;&#1108; &#1079;&#1072;&#1087;&#1080;&#1090;&#1080;</text></g><!--link ????????????????? to ????????????????--><g id="link_&#1062;&#1077;&#1085;&#1090;&#1088;&#1072;&#1083;&#1100;&#1085;&#1072;&#1057;&#1080;&#1089;&#1090;&#1077;&#1084;&#1072;_&#1057;&#1080;&#1089;&#1090;&#1077;&#1084;&#1072;&#1047;&#1072;&#1084;&#1086;&#1074;&#1083;&#1077;&#1085;&#1100;"><path codeLine="47" d="M161,556.7894 C161,581.7594 161,610.6294 161,634.5594 " fill="none" id="&#1062;&#1077;&#1085;&#1090;&#1088;&#1072;&#1083;&#1100;&#1085;&#1072;&#1057;&#1080;&#1089;&#1090;&#1077;&#1084;&#1072;-&#1057;&#1080;&#1089;&#1090;&#1077;&#1084;&#1072;&#1047;&#1072;&#1084;&#1086;&#1074;&#1083;&#1077;&#1085;&#1100;" style="stroke:#181818;stroke-width:1.0;"/><text fill="#000000" font-family="sans-serif" font-size="13" lengthAdjust="spacing" textLength="61" x="162" y="601.1045">&#1074;&#1079;&#1072;&#1108;&#1084;&#1086;&#1076;&#1110;&#1108;</text></g><!--link ???????????????? to ?????--><g id="link_&#1057;&#1080;&#1089;&#1090;&#1077;&#1084;&#1072;&#1047;&#1072;&#1084;&#1086;&#1074;&#1083;&#1077;&#1085;&#1100;_&#1050;&#1085;&#1080;&#1075;&#1080;"><path codeLine="49" d="M149.4,735.9194 C147.57,745.7094 145.96,755.9394 145,765.6094 C143.17,783.9294 143.23,804.1094 143.98,821.8994 " fill="none" id="&#1057;&#1080;&#1089;&#1090;&#1077;&#1084;&#1072;&#1047;&#1072;&#1084;&#1086;&#1074;&#1083;&#1077;&#1085;&#1100;-&#1050;&#1085;&#1080;&#1075;&#1080;" style="stroke:#181818;stroke-width:1.0;"/><text fill="#000000" font-family="sans-serif" font-size="13" lengthAdjust="spacing" textLength="120" x="146" y="780.1045">&#1087;&#1077;&#1088;&#1077;&#1074;&#1110;&#1088;&#1103;&#1108; &#1085;&#1072;&#1103;&#1074;&#1085;&#1110;&#1089;&#1090;&#1100;</text></g><!--link ???????????????? to ??????????--><g id="link_&#1057;&#1080;&#1089;&#1090;&#1077;&#1084;&#1072;&#1047;&#1072;&#1084;&#1086;&#1074;&#1083;&#1077;&#1085;&#1100;_&#1047;&#1072;&#1084;&#1086;&#1074;&#1083;&#1077;&#1085;&#1085;&#1103;"><path codeLine="51" d="M235.37,735.6494 C247.73,745.0494 260.07,755.2194 271,765.6094 C286.21,780.0794 301.12,797.2994 314.1,813.6094 " fill="none" id="&#1057;&#1080;&#1089;&#1090;&#1077;&#1084;&#1072;&#1047;&#1072;&#1084;&#1086;&#1074;&#1083;&#1077;&#1085;&#1100;-&#1047;&#1072;&#1084;&#1086;&#1074;&#1083;&#1077;&#1085;&#1085;&#1103;" style="stroke:#181818;stroke-width:1.0;"/><text fill="#000000" font-family="sans-serif" font-size="13" lengthAdjust="spacing" textLength="50" x="288" y="780.1045">&#1089;&#1090;&#1074;&#1086;&#1088;&#1102;&#1108;</text></g><!--link ???????? to ??????????--><g id="link_&#1055;&#1086;&#1082;&#1091;&#1087;&#1077;&#1094;&#1100;_&#1047;&#1072;&#1084;&#1086;&#1074;&#1083;&#1077;&#1085;&#1085;&#1103;"><path codeLine="53" d="M338.02,181.6994 C362.18,217.2794 385,263.0694 385,309.1094 C385,309.1094 385,309.1094 385,686.1094 C385,729.1394 377.29,777.1094 369.82,813.4894 " fill="none" id="&#1055;&#1086;&#1082;&#1091;&#1087;&#1077;&#1094;&#1100;-&#1047;&#1072;&#1084;&#1086;&#1074;&#1083;&#1077;&#1085;&#1085;&#1103;" style="stroke:#181818;stroke-width:1.0;"/><text fill="#000000" font-family="sans-serif" font-size="13" lengthAdjust="spacing" textLength="23" x="386" y="503.1045">&#1084;&#1072;&#1108;</text><text fill="#000000" font-family="sans-serif" font-size="13" lengthAdjust="spacing" textLength="7" x="336.4361" y="203.057">1</text><text fill="#000000" font-family="sans-serif" font-size="13" lengthAdjust="spacing" textLength="20" x="350.2856" y="802.799">0..*</text></g><!--SRC=[jLIxRi9G3DtvYYkMlWHgrypzWtu1Qb65X1XADbG9GaKN15KLWOI4sYwTGu0Idla5tp_giHCUeGcmT83SNDl7nyTsp89Pp2koTOSS6keg_XVaA9hHd1nTmxNBBqlow0VF5Rdu3Mcbs0q7XoOmBNKzbRelvifbHHzmcEaw-JJM3TrKbPHI6LLuC5IXPCePe8iptJRKdVbKA3tA7T815vPbzDe7YofCSztSCLmf97QrHIiOFPeWdGj7YpnGRfzVf9utTDvfJ0DgWA85GbNzWlUfhWajmFW2C8MvpU7K1R0F68lUTXC0lA4xkWle88onW3GAikw4zN7wmjELq36K0xJO5wBUV7stXd9Hz0YcWOW_4H2FFk76PQ5kl2D9fAXl1j6MHC03W4WgnQD8QM0boXD9k121jk6yHD9UK1m7XVgzahCfa5b96Gmm2aFZD6dzWoRxK8VLY5I-3njEO0peMeTa7eBgXZ9nI5_SneUfhqBHi1GdaE_9RWt92nT5UZdXTaGNOGQct6eyfMFDzJubT1cQGsENAmpy8rbZ2eXPr73nXoTpWIrG5m6tEJFF6Vzy43APvAqqi0_8EDkE9fE4a3Q0ae8OyFX66D49i1LFS3YW7j2F8t2UOxCc1V1gs68OGI6cVYoCeRUJOEor5DycMmOZsj4JSUDwRUpCjcu9nVqsfM_I79w-pcOlqqaed1RHlm00]--></g></svg>